<?xml version="1.0" encoding="UTF-8"?><svg xmlns="http://www.w3.org/2000/svg" viewBox="0 0 45.25 48"><defs><style>.d{fill:#fbfff9;}.e{fill:#9b1722;}</style></defs><g id="a"/><g id="b"><g id="c"><g><rect class="e" width="45.25" height="48"/><path class="d" d="M18.39,39.42c.28,.49,.65,.89,1.09,1.21,.45,.31,.96,.54,1.54,.69,.58,.15,1.18,.22,1.81,.22,.45,0,.92-.05,1.41-.16,.49-.1,.94-.27,1.34-.49,.4-.22,.74-.52,1-.89,.27-.37,.4-.84,.4-1.41,0-.95-.63-1.67-1.9-2.14-1.26-.48-3.03-.95-5.29-1.43-.92-.21-1.82-.45-2.7-.74-.88-.28-1.66-.65-2.34-1.12-.68-.46-1.24-1.04-1.65-1.74-.42-.7-.62-1.55-.62-2.57,0-1.49,.29-2.71,.87-3.66,.58-.95,1.35-1.7,2.3-2.25,.95-.55,2.02-.94,3.21-1.16,1.19-.22,2.41-.33,3.66-.33s2.46,.12,3.64,.36c1.17,.24,2.22,.64,3.15,1.21s1.69,1.32,2.3,2.25c.61,.94,.97,2.12,1.09,3.55h-6.02c-.09-1.22-.55-2.04-1.38-2.48-.83-.43-1.82-.65-2.94-.65-.36,0-.74,.02-1.16,.07s-.8,.14-1.14,.29c-.34,.15-.63,.36-.87,.65-.24,.28-.36,.66-.36,1.14,0,.57,.21,1.03,.62,1.38,.42,.36,.96,.65,1.63,.87,.67,.22,1.43,.42,2.3,.6,.86,.18,1.74,.37,2.63,.58,.92,.21,1.82,.46,2.7,.76,.88,.3,1.66,.69,2.34,1.18,.68,.49,1.23,1.1,1.65,1.83,.42,.73,.62,1.63,.62,2.7,0,1.52-.31,2.79-.92,3.82-.61,1.03-1.41,1.85-2.39,2.48-.98,.62-2.1,1.06-3.37,1.32-1.26,.25-2.55,.38-3.86,.38s-2.65-.13-3.93-.4c-1.28-.27-2.42-.71-3.41-1.34-1-.62-1.81-1.45-2.45-2.48-.64-1.03-.99-2.31-1.05-3.86h6.02c0,.68,.14,1.27,.42,1.76Z"/></g></g></g></svg>